<?xml version="1.0" encoding="UTF-8" standalone="no"?>
<!-- Created with Inkscape (http://www.inkscape.org/) -->

<svg
   width="500mm"
   height="500mm"
   viewBox="0 0 500 500"
   version="1.1"
   id="svg1"
   inkscape:version="1.4 (86a8ad7, 2024-10-11)"
   sodipodi:docname="dark-mod.svg"
   inkscape:export-filename="moon.png"
   inkscape:export-xdpi="60.48"
   inkscape:export-ydpi="60.48"
   xmlns:inkscape="http://www.inkscape.org/namespaces/inkscape"
   xmlns:sodipodi="http://sodipodi.sourceforge.net/DTD/sodipodi-0.dtd"
   xmlns="http://www.w3.org/2000/svg"
   xmlns:svg="http://www.w3.org/2000/svg">
  <sodipodi:namedview
     id="namedview1"
     pagecolor="#505050"
     bordercolor="#eeeeee"
     borderopacity="1"
     inkscape:showpageshadow="0"
     inkscape:pageopacity="0"
     inkscape:pagecheckerboard="0"
     inkscape:deskcolor="#505050"
     inkscape:document-units="mm"
     inkscape:zoom="0.37104025"
     inkscape:cx="964.85488"
     inkscape:cy="1168.3368"
     inkscape:window-width="1920"
     inkscape:window-height="1051"
     inkscape:window-x="-9"
     inkscape:window-y="-9"
     inkscape:window-maximized="1"
     inkscape:current-layer="layer1" />
  <defs
     id="defs1" />
  <g
     inkscape:label="Calque 1"
     inkscape:groupmode="layer"
     id="layer1">
    <circle
       style="display:inline;mix-blend-mode:darken;fill:#000000;fill-opacity:1;stroke:#ffffff;stroke-width:15.5008;stroke-dasharray:none;stroke-opacity:1"
       id="path3"
       cx="249.36739"
       cy="250.48845"
       r="241.60524" />
    <path
       id="path1"
       style="display:inline;fill:#ffffff;fill-opacity:1;stroke:#4000f5;stroke-width:3.75902;stroke-dasharray:none;stroke-opacity:0"
       d="M 241.3436,60.094762 A 187.95157,187.95157 0 0 0 127.34217,99.201875 148.64975,148.64975 0 0 1 132.2121,98.854194 148.64975,148.64975 0 0 1 280.86251,247.50457 148.64975,148.64975 0 0 1 132.2121,396.15502 148.64975,148.64975 0 0 1 125.74347,395.6927 187.95157,187.95157 0 0 0 241.3436,435.99633 187.95157,187.95157 0 0 0 429.29341,248.04652 187.95157,187.95157 0 0 0 241.3436,60.094762 Z" />
  </g>
</svg>
